Coordinates
version=1
nRows=15
nColumns=34
inDegrees=yes

Units are S.I. units (second, meters, Newtons, ...)
If the header above contains a line with 'inDegrees', this indicates whether rotational values are in degrees (yes) or radians (no).

endheader
time	pelvis_tilt	pelvis_list	pelvis_rotation	pelvis_tx	pelvis_ty	pelvis_tz	hip_flexion_r	hip_adduction_r	hip_rotation_r	knee_angle_r	ankle_angle_r	subtalar_angle_r	mtp_angle_r	hip_flexion_l	hip_adduction_l	hip_rotation_l	knee_angle_l	ankle_angle_l	subtalar_angle_l	mtp_angle_l	lumbar_extension	lumbar_bending	lumbar_rotation	arm_flex_r	arm_add_r	arm_rot_r	elbow_flex_r	pro_sup_r	arm_flex_l	arm_add_l	arm_rot_l	elbow_flex_l	pro_sup_l
      3.43333330	     -7.99578265	     -1.41639192	      2.52312300	      0.73365083	      0.67544167	     -0.12261224	     60.39688901	    -11.64705082	     -0.09197899	     91.57823741	     27.51722538	    -17.03141573	      0.00000000	     63.17117018	     -9.06131741	      0.31748896	     92.85482801	     20.75907800	    -24.71254741	      0.00000000	    -43.03625591	      0.16515744	      3.15874995	     57.32940678	    -30.65690058	     35.80918716	     20.07840657	    100.50696077	     68.27691575	    -19.84773666	     50.43466965	     42.82071755	     91.94094297
      3.45000000	     -7.05324471	     -1.10797296	      2.92686983	      0.74707026	      0.69322606	     -0.11933664	     53.79637883	    -11.51296713	     -1.18266048	     85.12057262	     25.63924809	    -18.63351758	      0.00000000	     56.47855243	     -8.88429728	     -0.89213543	     86.09083380	     20.08954102	    -24.48312295	      0.00000000	    -41.49714741	      0.37180086	      2.54976906	     42.54708804	    -33.92764046	     31.91433285	     16.13865905	     95.51571910	     57.68893094	    -29.16957829	     53.34092422	     46.76213540	     89.08175147
      3.46666670	     -6.82552390	     -1.08571769	      3.17444384	      0.75538899	      0.71947063	     -0.12276072	     48.36737716	    -11.18286082	     -2.45076119	     78.40197829	     22.97550510	    -19.62350735	      0.00000000	     50.73661696	     -8.45889792	     -1.61508108	     79.11007439	     18.01231252	    -25.73035488	      0.00000000	    -38.93495424	      0.20350063	      1.86893654	     26.61767494	    -37.52046577	     23.00420102	     17.54688152	     88.17347906	     43.94917311	    -35.69000347	     43.00457111	     53.59648239	     85.85489044
      3.48333330	     -6.32428037	     -1.01424670	      3.34004815	      0.77605097	      0.75086147	     -0.11728734	     41.99981084	    -10.48134641	     -3.72300349	     70.88639801	     21.01497479	    -19.63876970	      0.00000000	     44.47365534	     -8.38312588	     -2.30108825	     71.61724315	     16.38638044	    -25.10191019	      0.00000000	    -36.76199985	     -0.33949394	      1.46461959	     11.99912625	    -36.86482279	     12.78338857	     19.63242504	     80.83648407	     26.55720132	    -42.64639017	     32.29466771	     63.46896477	     86.19630543
      3.50000000	     -5.28198285	     -0.80155452	      3.36115400	      0.77946317	      0.78795581	     -0.12355953	     35.59489306	     -9.92123339	     -4.65662053	     62.68927349	     16.62414167	    -20.82389261	      0.00000000	     38.01603864	     -7.67150624	     -3.19629448	     63.84093173	     12.12770470	    -26.37485542	      0.00000000	    -35.39607337	     -0.27262694	      2.39108635	     -0.52905730	    -39.96924542	      8.92132728	     20.90409405	     77.46245669	     11.68676328	    -45.70598892	     24.74585137	     69.01730645	     86.19756019
      3.51666670	     -5.10032430	     -0.88065296	      3.80828667	      0.79371297	      0.82128594	     -0.12906855	     29.62251622	     -9.85390322	     -6.57472530	     53.69805144	     11.83771517	    -19.02099834	      0.00000000	     32.32879014	     -6.72853867	     -3.52909137	     55.22818628	      7.76754596	    -26.19378359	      0.00000000	    -31.84490975	      0.37052296	      1.31695095	     -7.28047404	    -40.90543600	     -3.38242535	     20.02539850	     70.92898635	     -9.37531365	    -45.64850076	     10.77733367	     75.43930910	     85.32923391
      3.53333330	     -5.20209735	     -0.39851340	      4.24998595	      0.80811070	      0.85245478	     -0.13212968	     23.68123732	    -10.38859119	     -8.71829559	     43.88492554	      6.08243603	    -16.40349075	      0.00000000	     26.57928507	     -5.28490234	     -4.10095581	     45.79048115	      1.92954942	    -25.29887605	      0.00000000	    -27.52577144	      0.22542076	      0.03933044	    -19.61210564	    -38.64677468	    -13.10268337	     22.01848712	     66.72912142	    -29.52511339	    -44.80109291	      0.73275213	     79.61178194	     83.97956748
      3.55000000	     -6.18931596	     -0.24338852	      4.65308614	      0.82508670	      0.88757707	     -0.13338352	     18.21155052	    -10.39158983	    -11.60130610	     33.40324376	     -1.12029459	    -11.46937971	      0.00000000	     21.60713828	     -4.42177290	     -4.45823395	     35.58715877	     -4.97596115	    -22.18954916	      0.00000000	    -22.82916975	     -0.40440153	      3.02271657	    -32.23618427	    -41.75353443	     -7.74415841	     21.32944496	     67.94684807	    -41.17883126	    -45.43626398	     -1.95716662	     81.55220823	     82.28464846
      3.56666670	     -7.30809869	      0.16858175	      4.58787324	      0.84404361	      0.91971532	     -0.13441627	     13.54311608	    -10.46783216	    -14.39301271	     23.77494810	     -9.86929271	     -5.57498852	      0.00000000	     16.33713723	     -3.55012188	     -4.33579948	     24.09191819	    -15.00090486	    -18.93620869	      0.00000000	    -18.22608095	     -2.36026977	      6.18648123	    -43.09018072	    -43.90667640	     -3.37794592	     26.88266257	     68.65756807	    -50.46923900	    -44.66693418	     -5.46487753	     79.76772195	     80.12636288
      3.58333330	     -8.30132178	      0.24355471	      4.50788174	      0.86100473	      0.96598549	     -0.13558201	      9.28271595	     -9.73643026	    -16.44182345	     13.65883880	    -22.81084357	     -0.06871950	      0.00000000	     11.37406189	     -3.53550359	     -5.35337812	     12.66080220	    -27.12700503	    -14.37356098	      0.00000000	    -13.34020666	     -3.15903616	      6.55201233	    -47.38742744	    -44.79606866	     -2.99611191	     32.59546890	     68.36811654	    -56.13255863	    -40.57420020	     -7.20915439	     72.27925500	     78.21402683
      3.60000000	     -9.26437832	      0.05741381	      4.92439986	      0.86596085	      1.00197626	     -0.13525690	      6.40055754	     -8.85846880	    -17.91547554	      5.74905194	    -34.13434338	      2.38386852	      0.00000000	      8.35816016	     -3.76077909	     -8.07432062	      4.38747499	    -34.13439302	    -10.58572340	      0.00000000	     -9.31302867	     -3.67132143	      5.29411237	    -48.25092766	    -43.40560605	     -9.17773774	     41.06559859	     67.49141138	    -58.02450220	    -35.29469264	     -7.96253016	     63.09982957	     76.20196559
      3.61666670	     -8.90319165	     -0.09394457	      5.40694460	      0.87096941	      1.04079877	     -0.14572670	      3.31397900	     -8.58514026	    -19.66480494	      0.51373660	    -42.52065918	      1.49400833	      0.00000000	      5.56898749	     -3.14184869	     -9.86203538	      0.00000000	    -38.74750178	     -7.62926435	      0.00000000	     -7.54533495	     -2.31619401	      5.80443377	    -53.72308515	    -34.58892450	    -30.16975581	     54.92619336	     68.46940434	    -53.62183251	    -36.10283764	      6.03866725	     50.94064804	     73.80977113
      3.63333330	     -9.34528498	     -0.74697482	      5.86318614	      0.87374367	      1.07674205	     -0.14609244	      3.15900233	     -8.09000627	    -21.10905831	      0.00000000	    -47.43714691	     -0.58488661	      0.00000000	      5.40596612	     -3.30019566	    -11.29289778	      0.00000000	    -41.97301794	     -5.71687859	      0.00000000	     -4.89478090	     -1.11915385	      3.94655197	    -52.53727712	    -29.12405449	    -39.09605407	     63.32824170	     72.45548065	    -50.77957469	    -33.73335746	     15.39991964	     40.85901032	     71.14982823
      3.65000000	     -8.39101336	     -1.74703727	      6.59175674	      0.87567551	      1.11101309	     -0.14919493	      1.28034279	     -6.58327032	    -21.98483469	      0.00000000	    -50.00000000	     -2.18636631	      0.00000000	      3.48070608	     -4.31222471	    -11.90320370	      0.00000000	    -45.91654072	     -5.92707591	      0.00000000	     -4.45378034	      0.13826474	     -0.52218196	    -48.54499037	    -27.45985063	    -39.43739517	     66.98492675	     73.49542919	    -51.26661093	    -29.38086654	     20.86097314	     34.92665052	     70.53309511
      3.66666670	     -7.84260679	     -2.40817049	      6.86773446	      0.87934040	      1.14575812	     -0.15551821	      0.38123758	     -5.22464472	    -22.90114678	      1.23612248	    -50.00000000	     -0.58804368	      0.00000000	      2.27523140	     -5.23691705	    -12.30444445	      0.00000000	    -48.80407608	     -6.66082415	      0.00000000	     -3.80769372	      0.97657722	     -3.53109757	    -44.60707021	    -26.23784232	    -39.11359236	     67.72639742	     74.05350205	    -50.55802218	    -26.14671893	     24.77683755	     31.16366582	     69.96809931
